<mxfile host="65bd71144e" modified="2021-11-04T05:32:15.169Z" agent="5.0 (Windows NT 10.0; Win64; x64) AppleWebKit/537.36 (KHTML, like Gecko) Code/1.61.2 Chrome/91.0.4472.164 Electron/13.5.1 Safari/537.36" version="15.6.8" etag="ReHVXe_o7NVM9eRVtFBl" type="embed">
    <diagram id="Gf4-LiHqiGNwq2f8_fel" name="ページ1">
        <mxGraphModel dx="1111" dy="506" grid="0" gridSize="10" guides="1" tooltips="1" connect="1" arrows="1" fold="1" page="0" pageScale="1" pageWidth="827" pageHeight="1169" math="0" shadow="0">
            <root>
                <mxCell id="0"/>
                <mxCell id="1" parent="0"/>
                <mxCell id="16" value="" style="rounded=0;whiteSpace=wrap;html=1;fillColor=default;strokeColor=default;fontColor=default;" parent="1" vertex="1">
                    <mxGeometry x="50" y="40" width="600" height="360" as="geometry"/>
                </mxCell>
                <mxCell id="17" value="CPUベンチマーク編集" style="text;html=1;strokeColor=none;fillColor=none;align=center;verticalAlign=middle;whiteSpace=wrap;rounded=0;fontColor=default;fontStyle=1;fontSize=20;" parent="1" vertex="1">
                    <mxGeometry x="213.75" y="50" width="252.5" height="50" as="geometry"/>
                </mxCell>
                <mxCell id="18" value="&lt;span style=&quot;font-size: 19px&quot;&gt;更新&lt;/span&gt;&lt;span style=&quot;color: rgba(0 , 0 , 0 , 0) ; font-family: monospace ; font-size: 0px&quot;&gt;%3CmxGraphModel%3E%3Croot%3E%3CmxCell%20id%3D%220%22%2F%3E%3CmxCell%20id%3D%221%22%20parent%3D%220%22%2F%3E%3CmxCell%20id%3D%222%22%20value%3D%22%22%20style%3D%22rounded%3D0%3BwhiteSpace%3Dwrap%3Bhtml%3D1%3BfillColor%3Ddefault%3BstrokeColor%3Ddefault%3BfontColor%3Ddefault%3B%22%20vertex%3D%221%22%20parent%3D%221%22%3E%3CmxGeometry%20x%3D%2240%22%20y%3D%2240%22%20width%3D%22600%22%20height%3D%22360%22%20as%3D%22geometry%22%2F%3E%3C%2FmxCell%3E%3CmxCell%20id%3D%223%22%20value%3D%22CPU%E3%83%99%E3%83%B3%E3%83%81%E3%83%9E%E3%83%BC%E3%82%AF%E6%96%B0%E8%A6%8F%E7%99%BB%E9%8C%B2%22%20style%3D%22text%3Bhtml%3D1%3BstrokeColor%3Dnone%3BfillColor%3Dnone%3Balign%3Dcenter%3BverticalAlign%3Dmiddle%3BwhiteSpace%3Dwrap%3Brounded%3D0%3BfontColor%3Ddefault%3BfontStyle%3D1%3BfontSize%3D20%3B%22%20vertex%3D%221%22%20parent%3D%221%22%3E%3CmxGeometry%20x%3D%22213.75%22%20y%3D%2250%22%20width%3D%22252.5%22%20height%3D%2250%22%20as%3D%22geometry%22%2F%3E%3C%2FmxCell%3E%3CmxCell%20id%3D%224%22%20value%3D%22%26lt%3Bspan%20style%3D%26quot%3Bfont-size%3A%2019px%26quot%3B%26gt%3B%E7%99%BB%E9%8C%B2%26lt%3B%2Fspan%26gt%3B%22%20style%3D%22rounded%3D1%3BwhiteSpace%3Dwrap%3Bhtml%3D1%3Balign%3Dcenter%3BlabelBackgroundColor%3Dnone%3BfillColor%3D%23d5e8d4%3BstrokeColor%3D%2382b366%3B%22%20vertex%3D%221%22%20parent%3D%221%22%3E%3CmxGeometry%20x%3D%22275%22%20y%3D%22330%22%20width%3D%22130%22%20height%3D%2234%22%20as%3D%22geometry%22%2F%3E%3C%2FmxCell%3E%3CmxCell%20id%3D%225%22%20value%3D%22CPU%E5%90%8D%E7%A7%B0%22%20style%3D%22text%3Bhtml%3D1%3BstrokeColor%3Dnone%3BfillColor%3Dnone%3Balign%3Dcenter%3BverticalAlign%3Dmiddle%3BwhiteSpace%3Dwrap%3Brounded%3D0%3B%22%20vertex%3D%221%22%20parent%3D%221%22%3E%3CmxGeometry%20x%3D%2295%22%20y%3D%22133%22%20width%3D%2260%22%20height%3D%2230%22%20as%3D%22geometry%22%2F%3E%3C%2FmxCell%3E%3CmxCell%20id%3D%226%22%20value%3D%22%22%20style%3D%22rounded%3D1%3BarcSize%3D9%3BfillColor%3D%23F7F8F9%3Balign%3Dleft%3BspacingLeft%3D5%3BstrokeColor%3D%23DEE1E6%3Bhtml%3D1%3BstrokeWidth%3D2%3BfontSize%3D12%22%20vertex%3D%221%22%20parent%3D%221%22%3E%3CmxGeometry%20x%3D%22165%22%20y%3D%22133%22%20width%3D%22196%22%20height%3D%2233%22%20as%3D%22geometry%22%2F%3E%3C%2FmxCell%3E%3CmxCell%20id%3D%227%22%20value%3D%22PassMark%22%20style%3D%22text%3Bhtml%3D1%3BstrokeColor%3Dnone%3BfillColor%3Dnone%3Balign%3Dcenter%3BverticalAlign%3Dmiddle%3BwhiteSpace%3Dwrap%3Brounded%3D0%3B%22%20vertex%3D%221%22%20parent%3D%221%22%3E%3CmxGeometry%20x%3D%2270%22%20y%3D%22173%22%20width%3D%22110%22%20height%3D%2230%22%20as%3D%22geometry%22%2F%3E%3C%2FmxCell%3E%3CmxCell%20id%3D%228%22%20value%3D%22%22%20style%3D%22rounded%3D1%3BarcSize%3D9%3BfillColor%3D%23F7F8F9%3Balign%3Dleft%3BspacingLeft%3D5%3BstrokeColor%3D%23DEE1E6%3Bhtml%3D1%3BstrokeWidth%3D2%3BfontSize%3D12%22%20vertex%3D%221%22%20parent%3D%221%22%3E%3CmxGeometry%20x%3D%22165%22%20y%3D%22173%22%20width%3D%22196%22%20height%3D%2233%22%20as%3D%22geometry%22%2F%3E%3C%2FmxCell%3E%3CmxCell%20id%3D%229%22%20value%3D%22TDP%22%20style%3D%22text%3Bhtml%3D1%3BstrokeColor%3Dnone%3BfillColor%3Dnone%3Balign%3Dcenter%3BverticalAlign%3Dmiddle%3BwhiteSpace%3Dwrap%3Brounded%3D0%3B%22%20vertex%3D%221%22%20parent%3D%221%22%3E%3CmxGeometry%20x%3D%22395%22%20y%3D%22131.5%22%20width%3D%2277.5%22%20height%3D%2230%22%20as%3D%22geometry%22%2F%3E%3C%2FmxCell%3E%3CmxCell%20id%3D%2210%22%20value%3D%22%22%20style%3D%22rounded%3D1%3BarcSize%3D9%3BfillColor%3D%23F7F8F9%3Balign%3Dleft%3BspacingLeft%3D5%3BstrokeColor%3D%23DEE1E6%3Bhtml%3D1%3BstrokeWidth%3D2%3BfontSize%3D12%22%20vertex%3D%221%22%20parent%3D%221%22%3E%3CmxGeometry%20x%3D%22485%22%20y%3D%22130%22%20width%3D%2280%22%20height%3D%2233%22%20as%3D%22geometry%22%2F%3E%3C%2FmxCell%3E%3CmxCell%20id%3D%2211%22%20value%3D%22%E3%82%B9%E3%83%AC%E3%83%83%E3%83%89%22%20style%3D%22text%3Bhtml%3D1%3BstrokeColor%3Dnone%3BfillColor%3Dnone%3Balign%3Dcenter%3BverticalAlign%3Dmiddle%3BwhiteSpace%3Dwrap%3Brounded%3D0%3B%22%20vertex%3D%221%22%20parent%3D%221%22%3E%3CmxGeometry%20x%3D%2295%22%20y%3D%22256%22%20width%3D%2260%22%20height%3D%2230%22%20as%3D%22geometry%22%2F%3E%3C%2FmxCell%3E%3CmxCell%20id%3D%2212%22%20value%3D%22%22%20style%3D%22rounded%3D1%3BarcSize%3D9%3BfillColor%3D%23F7F8F9%3Balign%3Dleft%3BspacingLeft%3D5%3BstrokeColor%3D%23DEE1E6%3Bhtml%3D1%3BstrokeWidth%3D2%3BfontSize%3D12%22%20vertex%3D%221%22%20parent%3D%221%22%3E%3CmxGeometry%20x%3D%22165%22%20y%3D%22254.5%22%20width%3D%22196%22%20height%3D%2233%22%20as%3D%22geometry%22%2F%3E%3C%2FmxCell%3E%3CmxCell%20id%3D%2213%22%20value%3D%22%E3%82%B3%E3%82%A2%22%20style%3D%22text%3Bhtml%3D1%3BstrokeColor%3Dnone%3BfillColor%3Dnone%3Balign%3Dcenter%3BverticalAlign%3Dmiddle%3BwhiteSpace%3Dwrap%3Brounded%3D0%3B%22%20vertex%3D%221%22%20parent%3D%221%22%3E%3CmxGeometry%20x%3D%2295%22%20y%3D%22216.5%22%20width%3D%2260%22%20height%3D%2230%22%20as%3D%22geometry%22%2F%3E%3C%2FmxCell%3E%3CmxCell%20id%3D%2214%22%20value%3D%22%22%20style%3D%22rounded%3D1%3BarcSize%3D9%3BfillColor%3D%23F7F8F9%3Balign%3Dleft%3BspacingLeft%3D5%3BstrokeColor%3D%23DEE1E6%3Bhtml%3D1%3BstrokeWidth%3D2%3BfontSize%3D12%22%20vertex%3D%221%22%20parent%3D%221%22%3E%3CmxGeometry%20x%3D%22165%22%20y%3D%22213.5%22%20width%3D%22196%22%20height%3D%2233%22%20as%3D%22geometry%22%2F%3E%3C%2FmxCell%3E%3CmxCell%20id%3D%2215%22%20value%3D%22W%22%20style%3D%22text%3Bhtml%3D1%3BstrokeColor%3Dnone%3BfillColor%3Dnone%3Balign%3Dcenter%3BverticalAlign%3Dmiddle%3BwhiteSpace%3Dwrap%3Brounded%3D0%3B%22%20vertex%3D%221%22%20parent%3D%221%22%3E%3CmxGeometry%20x%3D%22565%22%20y%3D%22131.5%22%20width%3D%2230%22%20height%3D%2230%22%20as%3D%22geometry%22%2F%3E%3C%2FmxCell%3E%3CmxCell%20id%3D%2216%22%20value%3D%22%E5%AE%9A%E6%A0%BC%E3%82%AF%E3%83%AD%E3%83%83%E3%82%AF%22%20style%3D%22text%3Bhtml%3D1%3BstrokeColor%3Dnone%3BfillColor%3Dnone%3Balign%3Dcenter%3BverticalAlign%3Dmiddle%3BwhiteSpace%3Dwrap%3Brounded%3D0%3B%22%20vertex%3D%221%22%20parent%3D%221%22%3E%3CmxGeometry%20x%3D%22395%22%20y%3D%22173%22%20width%3D%2277.5%22%20height%3D%2230%22%20as%3D%22geometry%22%2F%3E%3C%2FmxCell%3E%3CmxCell%20id%3D%2217%22%20value%3D%22%22%20style%3D%22rounded%3D1%3BarcSize%3D9%3BfillColor%3D%23F7F8F9%3Balign%3Dleft%3BspacingLeft%3D5%3BstrokeColor%3D%23DEE1E6%3Bhtml%3D1%3BstrokeWidth%3D2%3BfontSize%3D12%22%20vertex%3D%221%22%20parent%3D%221%22%3E%3CmxGeometry%20x%3D%22485%22%20y%3D%22173%22%20width%3D%2280%22%20height%3D%2233%22%20as%3D%22geometry%22%2F%3E%3C%2FmxCell%3E%3CmxCell%20id%3D%2218%22%20value%3D%22Hz%22%20style%3D%22text%3Bhtml%3D1%3BstrokeColor%3Dnone%3BfillColor%3Dnone%3Balign%3Dcenter%3BverticalAlign%3Dmiddle%3BwhiteSpace%3Dwrap%3Brounded%3D0%3B%22%20vertex%3D%221%22%20parent%3D%221%22%3E%3CmxGeometry%20x%3D%22565%22%20y%3D%22174.5%22%20width%3D%2230%22%20height%3D%2230%22%20as%3D%22geometry%22%2F%3E%3C%2FmxCell%3E%3CmxCell%20id%3D%2219%22%20value%3D%22%E6%9C%80%E5%A4%A7%E3%82%AF%E3%83%AD%E3%83%83%E3%82%AF%22%20style%3D%22text%3Bhtml%3D1%3BstrokeColor%3Dnone%3BfillColor%3Dnone%3Balign%3Dcenter%3BverticalAlign%3Dmiddle%3BwhiteSpace%3Dwrap%3Brounded%3D0%3B%22%20vertex%3D%221%22%20parent%3D%221%22%3E%3CmxGeometry%20x%3D%22395%22%20y%3D%22213%22%20width%3D%2277.5%22%20height%3D%2230%22%20as%3D%22geometry%22%2F%3E%3C%2FmxCell%3E%3CmxCell%20id%3D%2220%22%20value%3D%22%22%20style%3D%22rounded%3D1%3BarcSize%3D9%3BfillColor%3D%23F7F8F9%3Balign%3Dleft%3BspacingLeft%3D5%3BstrokeColor%3D%23DEE1E6%3Bhtml%3D1%3BstrokeWidth%3D2%3BfontSize%3D12%22%20vertex%3D%221%22%20parent%3D%221%22%3E%3CmxGeometry%20x%3D%22485%22%20y%3D%22213%22%20width%3D%2280%22%20height%3D%2233%22%20as%3D%22geometry%22%2F%3E%3C%2FmxCell%3E%3CmxCell%20id%3D%2221%22%20value%3D%22Hz%22%20style%3D%22text%3Bhtml%3D1%3BstrokeColor%3Dnone%3BfillColor%3Dnone%3Balign%3Dcenter%3BverticalAlign%3Dmiddle%3BwhiteSpace%3Dwrap%3Brounded%3D0%3B%22%20vertex%3D%221%22%20parent%3D%221%22%3E%3CmxGeometry%20x%3D%22565%22%20y%3D%22214.5%22%20width%3D%2230%22%20height%3D%2230%22%20as%3D%22geometry%22%2F%3E%3C%2FmxCell%3E%3CmxCell%20id%3D%2222%22%20value%3D%22%22%20style%3D%22rounded%3D1%3BarcSize%3D9%3BfillColor%3D%23F7F8F9%3Balign%3Dleft%3BspacingLeft%3D5%3BstrokeColor%3D%23DEE1E6%3Bhtml%3D1%3BstrokeWidth%3D2%3BfontSize%3D12%22%20vertex%3D%221%22%20parent%3D%221%22%3E%3CmxGeometry%20x%3D%22485%22%20y%3D%22253.5%22%20width%3D%2280%22%20height%3D%2233%22%20as%3D%22geometry%22%2F%3E%3C%2FmxCell%3E%3CmxCell%20id%3D%2223%22%20value%3D%22%E3%82%B3%E3%82%B9%E3%83%91%22%20style%3D%22text%3Bhtml%3D1%3BstrokeColor%3Dnone%3BfillColor%3Dnone%3Balign%3Dcenter%3BverticalAlign%3Dmiddle%3BwhiteSpace%3Dwrap%3Brounded%3D0%3B%22%20vertex%3D%221%22%20parent%3D%221%22%3E%3CmxGeometry%20x%3D%22395%22%20y%3D%22255%22%20width%3D%2277.5%22%20height%3D%2230%22%20as%3D%22geometry%22%2F%3E%3C%2FmxCell%3E%3C%2Froot%3E%3C%2FmxGraphModel%3E&lt;/span&gt;" style="rounded=1;whiteSpace=wrap;html=1;align=center;labelBackgroundColor=none;fillColor=#d5e8d4;strokeColor=#82b366;" parent="1" vertex="1">
                    <mxGeometry x="212.75" y="330" width="130" height="34" as="geometry"/>
                </mxCell>
                <mxCell id="19" value="CPU名称" style="text;html=1;strokeColor=none;fillColor=none;align=center;verticalAlign=middle;whiteSpace=wrap;rounded=0;" parent="1" vertex="1">
                    <mxGeometry x="95" y="133" width="60" height="30" as="geometry"/>
                </mxCell>
                <mxCell id="20" value="" style="rounded=1;arcSize=9;fillColor=#F7F8F9;align=left;spacingLeft=5;strokeColor=#DEE1E6;html=1;strokeWidth=2;fontSize=12" parent="1" vertex="1">
                    <mxGeometry x="165" y="133" width="196" height="33" as="geometry"/>
                </mxCell>
                <mxCell id="21" value="PassMark" style="text;html=1;strokeColor=none;fillColor=none;align=center;verticalAlign=middle;whiteSpace=wrap;rounded=0;" parent="1" vertex="1">
                    <mxGeometry x="70" y="173" width="110" height="30" as="geometry"/>
                </mxCell>
                <mxCell id="22" value="" style="rounded=1;arcSize=9;fillColor=#F7F8F9;align=left;spacingLeft=5;strokeColor=#DEE1E6;html=1;strokeWidth=2;fontSize=12" parent="1" vertex="1">
                    <mxGeometry x="165" y="173" width="196" height="33" as="geometry"/>
                </mxCell>
                <mxCell id="23" value="TDP" style="text;html=1;strokeColor=none;fillColor=none;align=center;verticalAlign=middle;whiteSpace=wrap;rounded=0;" parent="1" vertex="1">
                    <mxGeometry x="395" y="131.5" width="77.5" height="30" as="geometry"/>
                </mxCell>
                <mxCell id="24" value="" style="rounded=1;arcSize=9;fillColor=#F7F8F9;align=left;spacingLeft=5;strokeColor=#DEE1E6;html=1;strokeWidth=2;fontSize=12" parent="1" vertex="1">
                    <mxGeometry x="485" y="130" width="80" height="33" as="geometry"/>
                </mxCell>
                <mxCell id="25" value="スレッド" style="text;html=1;strokeColor=none;fillColor=none;align=center;verticalAlign=middle;whiteSpace=wrap;rounded=0;" parent="1" vertex="1">
                    <mxGeometry x="95" y="256" width="60" height="30" as="geometry"/>
                </mxCell>
                <mxCell id="26" value="" style="rounded=1;arcSize=9;fillColor=#F7F8F9;align=left;spacingLeft=5;strokeColor=#DEE1E6;html=1;strokeWidth=2;fontSize=12" parent="1" vertex="1">
                    <mxGeometry x="165" y="254.5" width="196" height="33" as="geometry"/>
                </mxCell>
                <mxCell id="27" value="コア" style="text;html=1;strokeColor=none;fillColor=none;align=center;verticalAlign=middle;whiteSpace=wrap;rounded=0;" parent="1" vertex="1">
                    <mxGeometry x="95" y="216.5" width="60" height="30" as="geometry"/>
                </mxCell>
                <mxCell id="28" value="" style="rounded=1;arcSize=9;fillColor=#F7F8F9;align=left;spacingLeft=5;strokeColor=#DEE1E6;html=1;strokeWidth=2;fontSize=12" parent="1" vertex="1">
                    <mxGeometry x="165" y="213.5" width="196" height="33" as="geometry"/>
                </mxCell>
                <mxCell id="29" value="W" style="text;html=1;strokeColor=none;fillColor=none;align=center;verticalAlign=middle;whiteSpace=wrap;rounded=0;" parent="1" vertex="1">
                    <mxGeometry x="565" y="131.5" width="30" height="30" as="geometry"/>
                </mxCell>
                <mxCell id="30" value="定格クロック" style="text;html=1;strokeColor=none;fillColor=none;align=center;verticalAlign=middle;whiteSpace=wrap;rounded=0;" parent="1" vertex="1">
                    <mxGeometry x="395" y="173" width="77.5" height="30" as="geometry"/>
                </mxCell>
                <mxCell id="31" value="" style="rounded=1;arcSize=9;fillColor=#F7F8F9;align=left;spacingLeft=5;strokeColor=#DEE1E6;html=1;strokeWidth=2;fontSize=12" parent="1" vertex="1">
                    <mxGeometry x="485" y="173" width="80" height="33" as="geometry"/>
                </mxCell>
                <mxCell id="32" value="Hz" style="text;html=1;strokeColor=none;fillColor=none;align=center;verticalAlign=middle;whiteSpace=wrap;rounded=0;" parent="1" vertex="1">
                    <mxGeometry x="565" y="174.5" width="30" height="30" as="geometry"/>
                </mxCell>
                <mxCell id="33" value="最大クロック" style="text;html=1;strokeColor=none;fillColor=none;align=center;verticalAlign=middle;whiteSpace=wrap;rounded=0;" parent="1" vertex="1">
                    <mxGeometry x="395" y="213" width="77.5" height="30" as="geometry"/>
                </mxCell>
                <mxCell id="34" value="" style="rounded=1;arcSize=9;fillColor=#F7F8F9;align=left;spacingLeft=5;strokeColor=#DEE1E6;html=1;strokeWidth=2;fontSize=12" parent="1" vertex="1">
                    <mxGeometry x="485" y="213" width="80" height="33" as="geometry"/>
                </mxCell>
                <mxCell id="35" value="Hz" style="text;html=1;strokeColor=none;fillColor=none;align=center;verticalAlign=middle;whiteSpace=wrap;rounded=0;" parent="1" vertex="1">
                    <mxGeometry x="565" y="214.5" width="30" height="30" as="geometry"/>
                </mxCell>
                <mxCell id="36" value="" style="rounded=1;arcSize=9;fillColor=#F7F8F9;align=left;spacingLeft=5;strokeColor=#DEE1E6;html=1;strokeWidth=2;fontSize=12" parent="1" vertex="1">
                    <mxGeometry x="485" y="253.5" width="80" height="33" as="geometry"/>
                </mxCell>
                <mxCell id="37" value="コスパ" style="text;html=1;strokeColor=none;fillColor=none;align=center;verticalAlign=middle;whiteSpace=wrap;rounded=0;" parent="1" vertex="1">
                    <mxGeometry x="395" y="255" width="77.5" height="30" as="geometry"/>
                </mxCell>
                <mxCell id="60" value="&lt;span style=&quot;font-size: 19px&quot;&gt;削除&lt;/span&gt;" style="rounded=1;whiteSpace=wrap;html=1;align=center;labelBackgroundColor=none;fillColor=#d5e8d4;strokeColor=#82b366;" vertex="1" parent="1">
                    <mxGeometry x="357.25" y="330" width="130" height="34" as="geometry"/>
                </mxCell>
            </root>
        </mxGraphModel>
    </diagram>
</mxfile>